<svg width="82" height="27" viewBox="0 0 82 27" fill="none" xmlns="http://www.w3.org/2000/svg">
<path d="M15.92 3.008V20H10.592V13.376H5.528V20H0.2V3.008H5.528V9.128H10.592V3.008H15.92ZM31.4212 13.112C31.4212 13.48 31.3972 13.832 31.3492 14.168H22.7812C22.8612 15.336 23.3492 15.92 24.2452 15.92C24.8212 15.92 25.2372 15.656 25.4932 15.128H31.1332C30.9412 16.088 30.5332 16.952 29.9092 17.72C29.3012 18.472 28.5252 19.072 27.5812 19.52C26.6532 19.952 25.6292 20.168 24.5092 20.168C23.1652 20.168 21.9652 19.888 20.9092 19.328C19.8692 18.768 19.0532 17.968 18.4612 16.928C17.8852 15.872 17.5972 14.64 17.5972 13.232C17.5972 11.824 17.8852 10.6 18.4612 9.56C19.0532 8.504 19.8692 7.696 20.9092 7.136C21.9652 6.576 23.1652 6.296 24.5092 6.296C25.8532 6.296 27.0452 6.576 28.0852 7.136C29.1412 7.68 29.9572 8.464 30.5332 9.488C31.1252 10.512 31.4212 11.72 31.4212 13.112ZM26.0212 11.84C26.0212 11.392 25.8772 11.056 25.5892 10.832C25.3012 10.592 24.9412 10.472 24.5092 10.472C23.5652 10.472 23.0132 10.928 22.8532 11.84H26.0212ZM35.7943 5.384C34.8663 5.384 34.1223 5.136 33.5623 4.64C33.0023 4.144 32.7223 3.52 32.7223 2.768C32.7223 2 33.0023 1.368 33.5623 0.871999C34.1223 0.359999 34.8663 0.103999 35.7943 0.103999C36.7063 0.103999 37.4423 0.359999 38.0023 0.871999C38.5623 1.368 38.8423 2 38.8423 2.768C38.8423 3.52 38.5623 4.144 38.0023 4.64C37.4423 5.136 36.7063 5.384 35.7943 5.384ZM38.4343 6.464V20H33.1063V6.464H38.4343ZM58.9126 6.368C60.6406 6.368 61.9766 6.888 62.9206 7.928C63.8806 8.968 64.3606 10.376 64.3606 12.152V20H59.0566V12.824C59.0566 12.248 58.8806 11.8 58.5286 11.48C58.1926 11.144 57.7366 10.976 57.1606 10.976C56.5686 10.976 56.1046 11.144 55.7686 11.48C55.4326 11.8 55.2646 12.248 55.2646 12.824V20H49.9606V12.824C49.9606 12.248 49.7846 11.8 49.4326 11.48C49.0966 11.144 48.6406 10.976 48.0646 10.976C47.4726 10.976 47.0086 11.144 46.6726 11.48C46.3366 11.8 46.1686 12.248 46.1686 12.824V20H40.8406V6.464H46.1686V8.288C46.5526 7.712 47.0726 7.248 47.7286 6.896C48.4006 6.544 49.1846 6.368 50.0806 6.368C51.0566 6.368 51.9206 6.584 52.6726 7.016C53.4246 7.432 54.0246 8.024 54.4726 8.792C54.9686 8.088 55.6006 7.512 56.3686 7.064C57.1366 6.6 57.9846 6.368 58.9126 6.368ZM81.9568 6.464L73.2928 26.48H67.4608L70.8688 19.328L65.2287 6.464H71.1568L73.7008 13.328L76.0768 6.464H81.9568Z" fill="#F41212"/>
</svg>
